<?xml version="1.0" standalone="yes"?>
<svg version="1.1" id="Layer_1" xmlns="http://www.w3.org/2000/svg" xmlns:xlink="http://www.w3.org/1999/xlink" x="0px" y="0px"
	 viewBox="0 0 512 512" style="enable-background:new 0 0 512 512;" xml:space="preserve">
<circle style="fill:#F0F0F0;" cx="256" cy="256" r="256"/>
<g>
<path style="fill:#000000; stroke:none;" d="M0 0L0 43L42 43L42 0L0 0z"/>
<path style="fill:#6a83c3; stroke:none;" d="M15 2L15 3L17 6L18 6L18 2L15 2z"/>
<path style="fill:#cfa9c0; stroke:none;" d="M18 2L18 5L19 5L18 2z"/>
<path style="fill:#f26674; stroke:none;" d="M19 2L19 18L20 18L19 2z"/>
<path style="fill:#cf1027; stroke:none;" d="M20 2L20 5L22 5L22 2L20 2z"/>
<path style="fill:#f26977; stroke:none;" d="M22 2L24 18L22 2z"/>
<path style="fill:#fedbe2; stroke:none;" d="M23 2L23 17L24 17L28 16L28 15L23 2z"/>
<path style="fill:#6a82bf; stroke:none;" d="M24 2L26 14L26 2L24 2z"/>
<path style="fill:#0a7eef; stroke:none;" d="M13.6667 3.33333L14.3333 3.66667L13.6667 3.33333z"/>
<path style="fill:#052c8f; stroke:none;" d="M11 8L17 3L11 8z"/>
<path style="fill:#011e66; stroke:none;" d="M25 3L28 9L33 6L25 3z"/>
<path style="fill:#38cfff; stroke:none;" d="M28 3L29 4L28 3z"/>
<path style="fill:#0088ff; stroke:none;" d="M30 4L31 5L30 4z"/>
<path style="fill:#006edb; stroke:none;" d="M10 5L9 7L11 7L10 5z"/>
<path style="fill:#fce6f9; stroke:none;" d="M18 5L18 10L19 10L18 5z"/>
<path style="fill:#ff3b54; stroke:none;" d="M20 5L20 9L22 9L22 5L20 5z"/>
<path style="fill:#4566cb; stroke:none;" d="M12 8L14 11L17 13L18 13L17 6L12 8z"/>
<path style="fill:#103391; stroke:none;" d="M25 6L25 13C27.7141 10.6119 28.1514 9.43417 27 6L25 6z"/>
<path style="fill:#00c2ff; stroke:none;" d="M7 7L8 8L7 7z"/>
<path style="fill:#ffffff; stroke:none;" d="M8 7L14 15L10 14L5 16L5 17L18 17C16.623 11.8845 13.1558 8.25247 8 7z"/>
<path style="fill:#ba5f6b; stroke:none;" d="M30 10L35 11C34.0567 7.63671 31.859 6.74683 30 10z"/>
<path style="fill:#e95f73; stroke:none;" d="M7 8L10 12L7 8z"/>
<path style="fill:#838fc0; stroke:none;" d="M5 10L8 12L7 9L5 10z"/>
<path style="fill:#dc1932; stroke:none;" d="M20 9L20 18L5 18L5 25L20 25L20 37L22 37L22 25L35 25L36 18L22 18L22 9L20 9z"/>
<path style="fill:#ef9dab; stroke:none;" d="M29 9L26 14L29 9z"/>
<path style="fill:#38415a; stroke:none;" d="M35 9L37 12L35 9z"/>
<path style="fill:#112c89; stroke:none;" d="M15 10L17 13L17 10L15 10z"/>
<path style="fill:#faaeb7; stroke:none;" d="M18 10L16 13L16 14L18 17L5 17L5 18L19 18L18 10z"/>
<path style="fill:#ef7585; stroke:none;" d="M26 15L32 10L26 15z"/>
<path style="fill:#ffffff; stroke:none;" d="M28 16L24 15L33 17L33 16L34 10L28 16z"/>
<path style="fill:#042074; stroke:none;" d="M4 11C4.65441 14.0539 6.00659 13.9358 9 14L4 11z"/>
<path style="fill:#ff8294; stroke:none;" d="M10 11L14 15L10 11z"/>
<path style="fill:#001141; stroke:none;" d="M33 14L38 15C37.0567 11.6367 34.859 10.7468 33 14z"/>
<path style="fill:#c0c2c5; stroke:none;" d="M37 11L38 12L37 11z"/>
<path style="fill:#f6d2e8; stroke:none;" d="M8.66667 12.3333L9.33333 12.6667L8.66667 12.3333z"/>
<path style="fill:#3a5093; stroke:none;" d="M3 13L7 15L7 14L3 13z"/>
<path style="fill:#6379c4; stroke:none;" d="M9 13L7 14L7 15L9 13z"/>
<path style="fill:#3c4e86; stroke:none;" d="M32 13L37 15L37 14L32 13z"/>
<path style="fill:#c0c1c4; stroke:none;" d="M38 13L39 14L38 13z"/>
<path style="fill:#aea7a7; stroke:none;" d="M31 14C32.7951 16.8214 34.8568 18.0214 37 15L31 14z"/>
<path style="fill:#55575b; stroke:none;" d="M38 14L36 18C38.6489 17.4324 39.3548 16.4122 38 14z"/>
<path style="fill:#c4cfee; stroke:none;" d="M3 17L10 16L3 17z"/>
<path style="fill:#cf8a92; stroke:none;" d="M2 16L5 18L5 17L2 16z"/>
<path style="fill:#8f8b8c; stroke:none;" d="M39.3333 16.6667L39.6667 17.3333L39.3333 16.6667z"/>
<path style="fill:#f8a4ae; stroke:none;" d="M24 17L24 18L34 18L24 17z"/>
<path style="fill:#9a1323; stroke:none;" d="M2 18L2 25L5 25L5 18L2 18z"/>
<path style="fill:#aa1023; stroke:none;" d="M36 18L35 25L37 25L36 18z"/>
<path style="fill:#540811; stroke:none;" d="M37 18L37 25L40 18L37 18z"/>
<path style="fill:#79565a; stroke:none;" d="M39 23L35 28L39 29L39 23z"/>
<path style="fill:#e6d2e8; stroke:none;" d="M2 25L2 28L3 28L2 25z"/>
<path style="fill:#f7a4ae; stroke:none;" d="M3 27L18 26L16 29L16 30L18 37L19 37L19 25L3 27z"/>
<path style="fill:#f26674; stroke:none;" d="M19 25L19 37L20 37L19 25z"/>
<path style="fill:#f26978; stroke:none;" d="M22 25L22 35L23 35L24 25L22 25z"/>
<path style="fill:#e4959f; stroke:none;" d="M24 25L24 26L36 26L24 25z"/>
<path style="fill:#fff9fb; stroke:none;" d="M5 26L5 27L11 30L18 29C16.9601 24.1472 9.10178 26 5 26z"/>
<path style="fill:#ffffff; stroke:none;" d="M23 26L31 33L28 28L33 27L23 26z"/>
<path style="fill:#a5a9b5; stroke:none;" d="M31 30L32 30L36 27C33.0917 26.1989 31.958 27.2507 31 30z"/>
<path style="fill:#cfcece; stroke:none;" d="M39 26L40 27L39 26z"/>
<path style="fill:#8c93a7; stroke:none;" d="M3 29L10 28L3 29z"/>
<path style="fill:#203367; stroke:none;" d="M4 28C5.37904 32.2265 8.10569 31.6031 10 28L4 28z"/>
<path style="fill:#cfd5e4; stroke:none;" d="M10 28L9 32L12 31L10 28z"/>
<path style="fill:#c74b59; stroke:none;" d="M8 36L16 28L8 36z"/>
<path style="fill:#f48895; stroke:none;" d="M28 30L31 29L28 30z"/>
<path style="fill:#28365e; stroke:none;" d="M32 30L37 29L32 30z"/>
<path style="fill:#01103a; stroke:none;" d="M37 28L33 29L35 33L37 28z"/>
<path style="fill:#c8caff; stroke:none;" d="M3 29L4 30L3 29z"/>
<path style="fill:#c9a7bc; stroke:none;" d="M23 29L23 36L24 36L26 30L23 29z"/>
<path style="fill:#bf5b6a; stroke:none;" d="M29 29L33 32L29 29z"/>
<path style="fill:#c1c3ca; stroke:none;" d="M38 29L39 30L38 29z"/>
<path style="fill:#cdabb0; stroke:none;" d="M8 30L5 33L8 36L8 30z"/>
<path style="fill:#a19cbf; stroke:none;" d="M14 30L14 32L16 30L14 30z"/>
<path style="fill:#031b5b; stroke:none;" d="M16 30L12 37L17 39L16 30z"/>
<path style="fill:#6277aa; stroke:none;" d="M17 30L17 37L18 37L17 30z"/>
<path style="fill:#657cb9; stroke:none;" d="M24 30L24 37L25 37L24 30z"/>
<path style="fill:#17357e; stroke:none;" d="M25 30L25 36C29.2459 34.7879 27.853 32.2496 25 30z"/>
<path style="fill:#7a3840; stroke:none;" d="M33 30L32 34L33 35L36 34L33 30z"/>
<path style="fill:#e8f5ff; stroke:none;" d="M4 31L5 32L4 31z"/>
<path style="fill:#c1c4cc; stroke:none;" d="M37 31L38 32L37 31z"/>
<path style="fill:#636f8f; stroke:none;" d="M5 32L5 33L8 33L5 32z"/>
<path style="fill:#38518f; stroke:none;" d="M12 35L15 32L12 35z"/>
<path style="fill:#787778; stroke:none;" d="M29 34L33 37L32 32L29 34z"/>
<path style="fill:#8d93a2; stroke:none;" d="M36 32L37 33L36 32z"/>
<path style="fill:#797086; stroke:none;" d="M10 34L10 37L11 37L12 34L10 34z"/>
<path style="fill:#0c204c; stroke:none;" d="M28 34L24 40L32 35L28 34z"/>
<path style="fill:#9da8c6; stroke:none;" d="M9 35L11 38L9 35z"/>
<path style="fill:#3d5591; stroke:none;" d="M11 35L17 40L17 39L11 35z"/>
<path style="fill:#826f7c; stroke:none;" d="M22 35L22 40L24 40L22 35z"/>
<path style="fill:#746471; stroke:none;" d="M17 37L17 39L19 39L19 37L17 37z"/>
<path style="fill:#8f1625; stroke:none;" d="M19 37L22 40L19 37z"/>
<path style="fill:#998de3; stroke:none;" d="M31 37L32 38L31 37z"/>
<path style="fill:#e6eaf7; stroke:none;" d="M11 38L12 39L11 38z"/>
<path style="fill:#b1acff; stroke:none;" d="M30 38L31 39L30 38z"/>
<path style="fill:#c1cadf; stroke:none;" d="M12.6667 39.3333L13.3333 39.6667L12.6667 39.3333z"/>
<path style="fill:#a38591; stroke:none;" d="M17 39L17 40L20 41L17 39z"/>
<path style="fill:#a2adc6; stroke:none;" d="M27.6667 39.3333L28.3333 39.6667L27.6667 39.3333z"/>
<path style="fill:#abb5d3; stroke:none;" d="M15 40L15 41L19 41L15 40z"/>
<path style="fill:#cd4657; stroke:none;" d="M20.6667 40.3333L21.3333 40.6667L20.6667 40.3333z"/>
<path style="fill:#cfc8d5; stroke:none;" d="M22 40L22 41L26 41L22 40z"/>
</svg>
